<svg width="16" height="16" viewBox="0 0 16 16" fill="none" xmlns="http://www.w3.org/2000/svg">
<rect x="5" y="4" width="8" height="10" fill="#26D07C"/>
<path d="M10.6667 0.666992H2.66671C1.93337 0.666992 1.33337 1.26699 1.33337 2.00033V11.3337H2.66671V2.00033H10.6667V0.666992ZM12.6667 3.33366H5.33337C4.60004 3.33366 4.00004 3.93366 4.00004 4.66699V14.0003C4.00004 14.7337 4.60004 15.3337 5.33337 15.3337H12.6667C13.4 15.3337 14 14.7337 14 14.0003V4.66699C14 3.93366 13.4 3.33366 12.6667 3.33366ZM12.6667 14.0003H5.33337V4.66699H12.6667V14.0003Z" fill="#26D07C"/>
<path d="M7.75006 10.7373L6.30422 9.29147C6.14172 9.12897 5.87922 9.12897 5.71672 9.29147C5.55422 9.45397 5.55422 9.71647 5.71672 9.87897L7.45839 11.6206C7.62089 11.7831 7.88339 11.7831 8.04589 11.6206L12.4542 7.2123C12.6167 7.0498 12.6167 6.7873 12.4542 6.6248C12.2917 6.4623 12.0292 6.4623 11.8667 6.6248L7.75006 10.7373Z" fill="white"/>
</svg>
