<svg width="167" height="135" viewBox="0 0 167 135" fill="none" xmlns="http://www.w3.org/2000/svg">
<ellipse opacity="0.199014" cx="73.7997" cy="66.2985" rx="62.8077" ry="62.7015" fill="#94E4B3"/>
<ellipse opacity="0.197992" cx="73.7997" cy="66.2984" rx="50.5951" ry="50.5096" fill="url(#paint0_radial_2181_16479)"/>
<g filter="url(#filter0_d_2181_16479)">
<path fill-rule="evenodd" clip-rule="evenodd" d="M110.179 116.297C108.135 118.338 108.138 121.654 110.183 123.695C112.222 125.732 115.529 125.735 117.569 123.698L133.307 107.987L149.046 123.698C151.086 125.735 154.392 125.732 156.432 123.695C158.477 121.654 158.48 118.338 156.435 116.297L140.709 100.597L156.435 84.8976C158.48 82.8564 158.477 79.5401 156.432 77.4988C154.392 75.4624 151.086 75.4593 149.046 77.4957L133.307 93.2076L117.569 77.4957C115.529 75.4593 112.222 75.4624 110.183 77.4988C108.138 79.5401 108.135 82.8564 110.179 84.8976L125.905 100.597L110.179 116.297Z" fill="white"/>
</g>
<path fill-rule="evenodd" clip-rule="evenodd" d="M55.5985 42.2418L56.0545 42.1209C57.8856 41.6716 59.805 41.6308 61.9038 41.9069V41.9069L62.5537 42.001C67.3029 42.75 71.6826 44.7877 75.8093 47.2V47.2C75.9911 47.3386 79.278 49.7846 83.6365 48.7664V48.7664L83.9996 48.6821C88.3552 47.6768 92.6454 46.9363 97.6487 49.7957V49.7957L97.8223 49.8972C102.923 52.9461 108.548 62.2923 101.568 73.637V73.637L101.336 74.0071C94.2325 85.1142 81.7616 85.374 81.7616 85.374V85.374C81.6779 85.387 80.473 85.5662 77.3833 85.5976V85.5976L77.0792 85.6068C74.092 85.7576 72.7128 87.6483 72.7128 87.6483V87.6483L72.7061 87.6575C72.564 87.8516 70.1869 91.0744 68.0462 92.3938V92.3938L67.8625 92.4997C65.8419 93.5811 65.8795 90.6812 65.8792 90.6801V90.6801L65.8851 90.4057C65.9412 88.482 66.274 86.4991 64.937 84.8967V84.8967L64.7409 84.6798C63.645 83.5557 61.7719 82.9513 60.2728 82.6892V82.6892L60.2198 82.6785C58.9408 82.3924 48.2914 78.4595 44.9993 68.2513V68.2513L44.8758 67.8568C42.3893 59.6724 44.0301 49.55 51.342 44.3349C52.7404 43.3377 54.1437 42.6565 55.5985 42.2418V42.2418Z" fill="#26D07C"/>
<mask id="mask0_2181_16479" style="mask-type:alpha" maskUnits="userSpaceOnUse" x="43" y="41" width="62" height="52">
<path fill-rule="evenodd" clip-rule="evenodd" d="M55.5985 42.2418L56.0545 42.1209C57.8856 41.6716 59.805 41.6308 61.9038 41.9069V41.9069L62.5537 42.001C67.3029 42.75 71.6826 44.7877 75.8093 47.2V47.2C75.9911 47.3386 79.278 49.7846 83.6365 48.7664V48.7664L83.9996 48.6821C88.3552 47.6768 92.6454 46.9363 97.6487 49.7957V49.7957L97.8223 49.8972C102.923 52.9461 108.548 62.2923 101.568 73.637V73.637L101.336 74.0071C94.2325 85.1142 81.7616 85.374 81.7616 85.374V85.374C81.6779 85.387 80.473 85.5662 77.3833 85.5976V85.5976L77.0792 85.6068C74.092 85.7576 72.7128 87.6483 72.7128 87.6483V87.6483L72.7061 87.6575C72.564 87.8516 70.1869 91.0744 68.0462 92.3938V92.3938L67.8625 92.4997C65.8419 93.5811 65.8795 90.6812 65.8792 90.6801V90.6801L65.8851 90.4057C65.9412 88.482 66.274 86.4991 64.937 84.8967V84.8967L64.7409 84.6798C63.645 83.5557 61.7719 82.9513 60.2728 82.6892V82.6892L60.2198 82.6785C58.9408 82.3924 48.2914 78.4595 44.9993 68.2513V68.2513L44.8758 67.8568C42.3893 59.6724 44.0301 49.55 51.342 44.3349C52.7404 43.3377 54.1437 42.6565 55.5985 42.2418V42.2418Z" fill="white"/>
</mask>
<g mask="url(#mask0_2181_16479)">
<path opacity="0.0535974" fill-rule="evenodd" clip-rule="evenodd" d="M81.9768 44.925C81.9768 44.925 102.844 63.0006 77.7938 86.706C52.7436 110.411 112.28 111.244 112.28 111.244L115.055 83.3901L119.712 44.2245L104.303 35.6404L81.9768 44.925Z" fill="black"/>
</g>
<path fill-rule="evenodd" clip-rule="evenodd" d="M62.425 58.8517C62.425 62.1483 59.7167 64.8207 56.3743 64.8207C53.0332 64.8207 50.3242 62.1483 50.3242 58.8517C50.3242 55.5557 53.0332 52.8833 56.3743 52.8833C59.7167 52.8833 62.425 55.5557 62.425 58.8517" fill="#FEFEFE"/>
<path fill-rule="evenodd" clip-rule="evenodd" d="M74.5259 61.5048C74.5259 64.8017 71.8176 67.4736 68.4751 67.4736C65.1341 67.4736 62.425 64.8017 62.425 61.5048C62.425 58.2087 65.1341 55.5361 68.4751 55.5361C71.8176 55.5361 74.5259 58.2087 74.5259 61.5048" fill="#FEFEFE"/>
<path fill-rule="evenodd" clip-rule="evenodd" d="M59.7361 59.5153C59.7361 60.9801 58.5323 62.1681 57.0466 62.1681C55.5617 62.1681 54.3579 60.9801 54.3579 59.5153C54.3579 58.0506 55.5617 56.8625 57.0466 56.8625C58.5323 56.8625 59.7361 58.0506 59.7361 59.5153" fill="#050101"/>
<path fill-rule="evenodd" clip-rule="evenodd" d="M71.8369 62.1681C71.8369 63.6329 70.6331 64.8209 69.1475 64.8209C67.6625 64.8209 66.4587 63.6329 66.4587 62.1681C66.4587 60.7034 67.6625 59.5154 69.1475 59.5154C70.6331 59.5154 71.8369 60.7034 71.8369 62.1681" fill="#050101"/>
<path fill-rule="evenodd" clip-rule="evenodd" d="M9.90242 13.4744C11.1505 12.443 13.0591 12.0925 14.9062 14.0888C15.9148 15.1788 17.9882 18.33 20.1964 21.6859C22.0322 24.4757 23.961 27.4071 25.4486 29.4134L27.5621 32.201C27.8219 32.5184 27.9448 32.9151 27.9062 33.3151C27.8884 33.4959 27.8412 33.6693 27.7634 33.8373C27.6311 34.1227 27.4106 34.3917 27.0981 34.6503C25.955 35.5904 25.041 34.9972 24.788 34.7931L24.6977 34.7201C24.6977 34.7201 22.637 32.3103 20.2192 29.7561C18.9391 28.4038 16.0722 25.5493 13.5819 23.0698C11.3685 20.8659 9.45253 18.9583 9.21263 18.6648C8.54247 17.8388 8.26712 16.8957 8.41248 15.9339C8.55348 15.0037 9.05454 14.1766 9.90242 13.4744ZM26.8227 38.4249C26.9144 37.4265 27.3681 36.563 28.1361 35.9286C28.9041 35.2946 29.8324 35.0157 30.8214 35.1221C31.8172 35.229 32.648 35.6839 33.2902 36.4744C33.918 37.2473 34.193 38.1826 34.0853 39.1799C34.0386 39.613 33.9297 40.0136 33.7603 40.3792C33.5368 40.8614 33.2079 41.283 32.7756 41.6399C32.0107 42.272 31.0882 42.5548 30.1074 42.4577C29.1266 42.3604 28.2778 41.9016 27.6522 41.1318C27.01 40.3414 26.731 39.4306 26.8227 38.4249Z" fill="#26D07C"/>
<path fill-rule="evenodd" clip-rule="evenodd" d="M37.9521 31.7134C38.1863 30.8191 38.7014 30.0939 39.4489 29.6044L39.6405 29.487L39.8387 29.3813C40.6376 28.9858 41.513 28.9145 42.3845 29.1765C43.3352 29.4621 44.0681 30.0614 44.5623 30.9578C45.0454 31.8343 45.1588 32.8072 44.8898 33.7722C44.7731 34.1913 44.6012 34.5669 44.3762 34.8972C44.0795 35.3328 43.6901 35.6894 43.211 35.9635C42.3631 36.4492 41.4195 36.5614 40.4817 36.2882C39.5441 36.0148 38.7943 35.4084 38.3128 34.5355C37.8186 33.6391 37.6972 32.6896 37.9521 31.7134ZM23.7555 6.18324C24.0459 5.29063 24.6693 4.56476 25.6095 4.02498C26.9931 3.23263 28.7887 2.88754 30.948 2.99888C33.0495 3.10295 35.0248 3.62713 36.8163 4.55673C38.666 5.51696 40.0409 6.79821 40.9036 8.36501C41.9593 10.2798 42.4831 12.1513 42.4597 13.9274C42.4411 15.6339 41.7732 17.6208 40.4198 19.9885L39.9196 20.848V20.848L39.6895 21.2634V21.2634L39.4947 21.6351V21.6351L39.3323 21.9653V21.9653L39.1993 22.2561V22.2561L39.0929 22.5097V22.5097L39.0103 22.7284V22.7284L38.9484 22.9142V22.9142L38.8883 23.1364V23.1364L38.8659 23.2498C38.8631 23.2666 38.8607 23.2823 38.8588 23.297C38.8028 23.7171 38.865 24.1173 39.049 24.5162L39.1354 24.6871L39.6965 25.7036C39.8968 26.064 39.951 26.4777 39.8475 26.8656C39.8004 27.0408 39.726 27.2035 39.6226 27.3552C39.447 27.613 39.1883 27.8386 38.8418 28.0374C37.7563 28.6556 37.02 28.1923 36.6981 27.8916L36.6062 27.7991V27.7991L36.4962 27.6721L34.1881 23.4852C33.6015 22.4205 33.3627 21.2823 33.4778 20.1017C33.5807 19.0511 34.1078 17.6617 35.0875 15.862L35.2766 15.5197C35.3776 15.3381 35.4722 15.1639 35.5608 14.997L35.8089 14.5176V14.5176L36.0231 14.0796C36.0892 13.9404 36.15 13.8078 36.2059 13.6815L36.3595 13.3213V13.3213L36.4863 12.9973C36.5053 12.9462 36.5233 12.8965 36.5403 12.8483L36.6313 12.5753V12.5753L36.7013 12.3341V12.3341L36.7528 12.1229V12.1229L36.7879 11.94V11.94L36.8091 11.7836V11.7836C36.8864 11.0476 36.7385 10.3535 36.3569 9.66217C35.6566 8.39144 34.9014 7.65012 34.1118 7.45805C33.288 7.26076 32.1754 7.55796 30.8078 8.34247C30.4381 8.55237 30.0167 8.869 29.5509 9.28606C29.0396 9.72738 28.5882 10.0587 28.1945 10.2843C27.4979 10.6843 26.7 10.7582 25.888 10.4978C25.099 10.2406 24.4767 9.73141 24.0837 9.02363C23.5681 8.08712 23.4557 7.10638 23.7555 6.18324Z" fill="#26D07C"/>
<defs>
<filter id="filter0_d_2181_16479" x="99.6475" y="66.97" width="67.3198" height="67.2542" filterUnits="userSpaceOnUse" color-interpolation-filters="sRGB">
<feFlood flood-opacity="0" result="BackgroundImageFix"/>
<feColorMatrix in="SourceAlpha" type="matrix" values="0 0 0 0 0 0 0 0 0 0 0 0 0 0 0 0 0 0 127 0" result="hardAlpha"/>
<feOffset/>
<feGaussianBlur stdDeviation="4.5"/>
<feColorMatrix type="matrix" values="0 0 0 0 0.580392 0 0 0 0 0.894118 0 0 0 0 0.701961 0 0 0 1 0"/>
<feBlend mode="normal" in2="BackgroundImageFix" result="effect1_dropShadow_2181_16479"/>
<feBlend mode="normal" in="SourceGraphic" in2="effect1_dropShadow_2181_16479" result="shape"/>
</filter>
<radialGradient id="paint0_radial_2181_16479" cx="0" cy="0" r="1" gradientUnits="userSpaceOnUse" gradientTransform="translate(73.7997 66.2984) rotate(90) scale(50.5096 49.8171)">
<stop stop-color="white"/>
<stop offset="0.474295" stop-color="#94E4B3"/>
<stop offset="1" stop-color="#26D07C"/>
</radialGradient>
</defs>
</svg>
