<svg width="136" height="122" viewBox="0 0 136 122" fill="none" xmlns="http://www.w3.org/2000/svg">
<path d="M128.29 0.566895L75.886 38.3762L85.6318 16.0625L128.29 0.566895Z" fill="#E17726" stroke="#E17726" stroke-width="0.5" stroke-linecap="round" stroke-linejoin="round"/>
<path d="M7.18579 0.566895L59.27 38.6861L50.0035 16.0625L7.18579 0.566895Z" fill="#E27625" stroke="#E27625" stroke-width="0.5" stroke-linecap="round" stroke-linejoin="round"/>
<path d="M109.437 88.1182L95.3776 108.882L125.414 116.94L133.882 88.583L109.437 88.1182Z" fill="#E27625" stroke="#E27625" stroke-width="0.5" stroke-linecap="round" stroke-linejoin="round"/>
<path d="M1.75378 88.583L10.2215 116.94L40.098 108.882L26.1982 88.1182L1.75378 88.583Z" fill="#E27625" stroke="#E27625" stroke-width="0.5" stroke-linecap="round" stroke-linejoin="round"/>
<path d="M38.5003 53.0979L30.1924 65.3395L59.7494 66.5791L58.7908 35.5879L38.5003 53.0979Z" fill="#E27625" stroke="#E27625" stroke-width="0.5" stroke-linecap="round" stroke-linejoin="round"/>
<path d="M97.1351 53.098L76.5251 35.2781L75.886 66.5792L105.443 65.3396L97.1351 53.098Z" fill="#E27625" stroke="#E27625" stroke-width="0.5" stroke-linecap="round" stroke-linejoin="round"/>
<path d="M40.0979 108.882L57.9919 100.514L42.4944 88.7378L40.0979 108.882Z" fill="#E27625" stroke="#E27625" stroke-width="0.5" stroke-linecap="round" stroke-linejoin="round"/>
<path d="M77.6433 100.514L95.3775 108.882L92.981 88.7378L77.6433 100.514Z" fill="#E27625" stroke="#E27625" stroke-width="0.5" stroke-linecap="round" stroke-linejoin="round"/>
<path d="M95.3775 108.881L77.6433 100.513L79.0812 111.67L78.9215 116.474L95.3775 108.881Z" fill="#D5BFB2" stroke="#D5BFB2" stroke-width="0.5" stroke-linecap="round" stroke-linejoin="round"/>
<path d="M40.098 108.881L56.7138 116.474L56.5541 111.67L57.992 100.513L40.098 108.881Z" fill="#D5BFB2" stroke="#D5BFB2" stroke-width="0.5" stroke-linecap="round" stroke-linejoin="round"/>
<path d="M57.0334 81.3L42.175 77.1162L52.5599 72.4675L57.0334 81.3Z" fill="#233447" stroke="#233447" stroke-width="0.5" stroke-linecap="round" stroke-linejoin="round"/>
<path d="M78.6021 81.3L82.9158 72.4675L93.4604 77.1162L78.6021 81.3Z" fill="#233447" stroke="#233447" stroke-width="0.5" stroke-linecap="round" stroke-linejoin="round"/>
<path d="M40.098 108.882L42.6543 88.1182L26.1982 88.583L40.098 108.882Z" fill="#CC6228" stroke="#CC6228" stroke-width="0.5" stroke-linecap="round" stroke-linejoin="round"/>
<path d="M92.981 88.1182L95.3775 108.882L109.437 88.583L92.981 88.1182Z" fill="#CC6228" stroke="#CC6228" stroke-width="0.5" stroke-linecap="round" stroke-linejoin="round"/>
<path d="M105.443 65.3394L75.886 66.579L78.602 81.2999L82.9158 72.4673L93.4604 77.116L105.443 65.3394Z" fill="#CC6228" stroke="#CC6228" stroke-width="0.5" stroke-linecap="round" stroke-linejoin="round"/>
<path d="M42.1749 77.116L52.5598 72.4673L57.0333 81.2999L59.7494 66.579L30.1924 65.3394L42.1749 77.116Z" fill="#CC6228" stroke="#CC6228" stroke-width="0.5" stroke-linecap="round" stroke-linejoin="round"/>
<path d="M30.1924 65.3394L42.4945 88.7378L42.1749 77.116L30.1924 65.3394Z" fill="#E27525" stroke="#E27525" stroke-width="0.5" stroke-linecap="round" stroke-linejoin="round"/>
<path d="M93.4601 77.116L92.9808 88.7378L105.443 65.3394L93.4601 77.116Z" fill="#E27525" stroke="#E27525" stroke-width="0.5" stroke-linecap="round" stroke-linejoin="round"/>
<path d="M59.7494 66.5786L57.0333 81.2995L60.3884 98.8095L61.1873 75.721L59.7494 66.5786Z" fill="#E27525" stroke="#E27525" stroke-width="0.5" stroke-linecap="round" stroke-linejoin="round"/>
<path d="M75.8858 66.5786L74.4479 75.721L75.0869 98.8095L78.6018 81.2995L75.8858 66.5786Z" fill="#E27525" stroke="#E27525" stroke-width="0.5" stroke-linecap="round" stroke-linejoin="round"/>
<path d="M78.602 81.2991L75.0872 98.8091L77.6434 100.514L92.9811 88.737L93.4604 77.1152L78.602 81.2991Z" fill="#F5841F" stroke="#F5841F" stroke-width="0.5" stroke-linecap="round" stroke-linejoin="round"/>
<path d="M42.175 77.1152L42.4946 88.737L57.992 100.514L60.3885 98.8091L57.0334 81.2991L42.175 77.1152Z" fill="#F5841F" stroke="#F5841F" stroke-width="0.5" stroke-linecap="round" stroke-linejoin="round"/>
<path d="M78.9215 116.474L79.0813 111.67L77.6434 110.585H57.8322L56.5541 111.67L56.7138 116.474L40.098 108.881L45.8497 113.53L57.6724 121.432H77.8032L89.6259 113.53L95.3776 108.881L78.9215 116.474Z" fill="#C0AC9D" stroke="#C0AC9D" stroke-width="0.5" stroke-linecap="round" stroke-linejoin="round"/>
<path d="M77.6435 100.514L75.0872 98.8093H60.3886L57.9921 100.514L56.5542 111.671L57.8323 110.586H77.6435L79.0814 111.671L77.6435 100.514Z" fill="#161616" stroke="#161616" stroke-width="0.5" stroke-linecap="round" stroke-linejoin="round"/>
<path d="M130.526 40.8555L135 19.9364L128.29 0.566895L77.6433 37.1366L97.1349 53.0971L124.615 60.8449L130.686 54.0268L128.13 52.1673L132.284 48.4484L129.088 45.9691L133.242 42.87L130.526 40.8555Z" fill="#763E1A" stroke="#763E1A" stroke-width="0.5" stroke-linecap="round" stroke-linejoin="round"/>
<path d="M0.635498 19.9364L5.10899 40.8555L2.23317 42.87L6.38713 45.9691L3.19178 48.4484L7.5055 52.1673L4.78945 54.0268L10.8606 60.8449L38.5004 53.0971L57.992 37.1366L7.18597 0.566895L0.635498 19.9364Z" fill="#763E1A" stroke="#763E1A" stroke-width="0.5" stroke-linecap="round" stroke-linejoin="round"/>
<path d="M124.615 60.845L97.1352 53.0972L105.443 65.3387L92.9812 88.7371L109.437 88.5821H133.882L124.615 60.845Z" fill="#F5841F" stroke="#F5841F" stroke-width="0.5" stroke-linecap="round" stroke-linejoin="round"/>
<path d="M38.5003 53.0972L10.8605 60.845L1.75378 88.5821H26.1982L42.4945 88.7371L30.1924 65.3387L38.5003 53.0972Z" fill="#F5841F" stroke="#F5841F" stroke-width="0.5" stroke-linecap="round" stroke-linejoin="round"/>
<path d="M75.8861 66.5782L77.6436 37.1366L85.6319 16.0625H50.0038L57.9922 37.1366L59.7496 66.5782L60.3887 75.8756V98.8091H75.0873V75.8756L75.8861 66.5782Z" fill="#F5841F" stroke="#F5841F" stroke-width="0.5" stroke-linecap="round" stroke-linejoin="round"/>
</svg>
