<svg width="206" height="64" viewBox="0 0 206 64" fill="none" xmlns="http://www.w3.org/2000/svg">
<path d="M172.004 32.0821C171.073 31.4667 170.058 31.0564 169.043 30.5231C168.408 30.1949 167.731 29.8667 167.181 29.4154C166.251 28.6769 166.42 27.2 167.435 26.5436C168.831 25.641 171.158 26.1333 171.411 27.9795C171.411 28.0205 171.454 28.0615 171.496 28.0615H173.611C173.653 28.0615 173.696 28.0205 173.696 27.9795C173.569 26.7077 173.061 25.641 172.131 24.9436C171.242 24.2872 170.227 23.959 169.127 23.959C163.544 23.959 163.036 29.7026 166.039 31.5077C166.378 31.7128 169.339 33.1487 170.396 33.8051C171.454 34.4205 171.75 35.5692 171.327 36.4718C170.904 37.2923 169.846 37.8667 168.789 37.7846C167.604 37.7026 166.716 37.0872 166.378 36.1436C166.336 35.9795 166.293 35.6513 166.293 35.4872C166.293 35.4462 166.251 35.4051 166.209 35.4051H163.924C163.882 35.4051 163.84 35.4462 163.84 35.4872C163.84 37.0872 164.263 37.9898 165.363 38.8103C166.42 39.5898 167.562 39.918 168.789 39.918C171.919 39.918 173.526 38.1949 173.865 36.4308C174.119 34.7077 173.611 33.1487 172.004 32.0821Z" fill="#161616"/>
<path d="M72.3038 24.2872H71.2886H70.1889C70.1466 24.2872 70.1043 24.3283 70.1043 24.3283L68.2008 30.359C68.1585 30.4411 68.0739 30.4411 68.0316 30.359L66.1281 24.3283C66.1281 24.2872 66.0858 24.2872 66.0435 24.2872H64.9437H63.9285H62.575C62.5327 24.2872 62.4904 24.3283 62.4904 24.3693V39.7539C62.4904 39.7949 62.5327 39.8359 62.575 39.8359H64.8591C64.9014 39.8359 64.9437 39.7949 64.9437 39.7539V28.0616C64.9437 27.9795 65.0706 27.9385 65.1129 28.0206L67.0164 34.0924L67.1433 34.5026C67.1433 34.5436 67.1856 34.5436 67.2279 34.5436H69.0045C69.0468 34.5436 69.0891 34.5026 69.0891 34.5026L69.216 34.0924L71.1194 28.0206C71.1617 27.9385 71.2886 27.9385 71.2886 28.0616V39.7539C71.2886 39.7949 71.3309 39.8359 71.3732 39.8359H73.6574C73.6997 39.8359 73.742 39.7949 73.742 39.7539V24.3693C73.742 24.3283 73.6997 24.2872 73.6574 24.2872H72.3038V24.2872Z" fill="#161616"/>
<path d="M136.853 24.2872C136.81 24.2872 136.768 24.3283 136.768 24.3283L134.865 30.359C134.822 30.4411 134.738 30.4411 134.696 30.359L132.792 24.3283C132.792 24.2872 132.75 24.2872 132.707 24.2872H129.197C129.154 24.2872 129.112 24.3283 129.112 24.3693V39.7539C129.112 39.7949 129.154 39.8359 129.197 39.8359H131.481C131.523 39.8359 131.565 39.7949 131.565 39.7539V28.0616C131.565 27.9795 131.692 27.9385 131.735 28.0206L133.638 34.0924L133.765 34.5026C133.765 34.5436 133.807 34.5436 133.85 34.5436H135.626C135.668 34.5436 135.711 34.5026 135.711 34.5026L135.838 34.0924L137.741 28.0206C137.783 27.9385 137.91 27.9385 137.91 28.0616V39.7539C137.91 39.7949 137.953 39.8359 137.995 39.8359H140.279C140.321 39.8359 140.364 39.7949 140.364 39.7539V24.3693C140.364 24.3283 140.321 24.2872 140.279 24.2872H136.853V24.2872Z" fill="#161616"/>
<path d="M107.243 24.2872H102.971H100.687H96.3722C96.3299 24.2872 96.2876 24.3283 96.2876 24.3693V26.2975C96.2876 26.3385 96.3299 26.3795 96.3722 26.3795H100.56V39.7539C100.56 39.7949 100.602 39.8359 100.644 39.8359H102.929C102.971 39.8359 103.013 39.7949 103.013 39.7539V26.3795H107.201C107.243 26.3795 107.285 26.3385 107.285 26.2975V24.3693C107.328 24.3283 107.285 24.2872 107.243 24.2872Z" fill="#161616"/>
<path fill-rule="evenodd" clip-rule="evenodd" d="M122.852 39.836H120.779C120.737 39.836 120.694 39.7949 120.694 39.7949L119.425 35.2821C119.425 35.2821 119.383 35.2411 119.341 35.2411H114.73C114.688 35.2411 114.646 35.2411 114.646 35.2821L113.377 39.7949C113.377 39.7949 113.334 39.836 113.292 39.836H111.219C111.177 39.836 111.135 39.7539 111.135 39.7129L115.449 24.2872C115.449 24.2872 115.492 24.2462 115.534 24.2462H116.338H117.733H118.537C118.579 24.2462 118.622 24.2462 118.622 24.2872L122.936 39.7129C122.936 39.7949 122.894 39.836 122.852 39.836ZM116.972 26.9949L115.28 33.0257C115.28 33.0667 115.322 33.1488 115.407 33.1488H118.749C118.791 33.1488 118.833 33.0667 118.833 33.0257L117.141 26.9949C117.099 26.9129 117.014 26.9129 116.972 26.9949Z" fill="#161616"/>
<path fill-rule="evenodd" clip-rule="evenodd" d="M158.468 39.836H156.395C156.353 39.836 156.311 39.7949 156.311 39.7949L155.042 35.2821C155.042 35.2821 154.999 35.2411 154.957 35.2411H150.346C150.304 35.2411 150.262 35.2411 150.262 35.2821L148.993 39.7949C148.993 39.7949 148.95 39.836 148.908 39.836H146.835C146.793 39.836 146.751 39.7539 146.751 39.7129L151.065 24.2872C151.065 24.2872 151.108 24.2462 151.15 24.2462H151.954H153.35H154.153C154.196 24.2462 154.238 24.2462 154.238 24.2872L158.552 39.7129C158.552 39.7949 158.51 39.836 158.468 39.836ZM152.588 26.9949L150.896 33.0257C150.896 33.0667 150.938 33.1488 151.023 33.1488H154.365C154.407 33.1488 154.449 33.0667 154.449 33.0257L152.757 26.9949C152.715 26.9129 152.63 26.9129 152.588 26.9949Z" fill="#161616"/>
<path d="M83.0479 37.5385V32.7795C83.0479 32.7385 83.0902 32.6975 83.1325 32.6975H89.2659C89.3082 32.6975 89.3505 32.6565 89.3505 32.6154V30.6872C89.3505 30.6462 89.3082 30.6052 89.2659 30.6052H83.1325C83.0902 30.6052 83.0479 30.5642 83.0479 30.5231V26.4616C83.0479 26.4206 83.0902 26.3795 83.1325 26.3795H90.0696C90.1119 26.3795 90.1542 26.3385 90.1542 26.2975V24.3693C90.1542 24.3283 90.1119 24.2872 90.0696 24.2872H83.0479H80.6791C80.6368 24.2872 80.5945 24.3283 80.5945 24.3693V26.3795V30.6462V32.7385V37.6616V39.7539C80.5945 39.7949 80.6368 39.8359 80.6791 39.8359H83.0479H90.3657C90.408 39.8359 90.4503 39.7949 90.4503 39.7539V37.7436C90.4503 37.7026 90.408 37.6616 90.3657 37.6616H83.0902C83.0902 37.6206 83.0479 37.5795 83.0479 37.5385Z" fill="#161616"/>
<path d="M192.984 39.6719L185.032 31.7129C184.99 31.6719 184.99 31.6308 185.032 31.5898L192.18 24.3693C192.223 24.3283 192.18 24.2462 192.138 24.2462H189.219C189.177 24.2462 189.177 24.2462 189.177 24.2872L183.086 30.4411C183.044 30.4821 182.959 30.4411 182.959 30.4001V24.4103C182.959 24.3693 182.917 24.3283 182.875 24.3283H180.548C180.506 24.3283 180.464 24.3693 180.464 24.4103V39.7949C180.464 39.836 180.506 39.877 180.548 39.877H182.832C182.875 39.877 182.917 39.836 182.917 39.7949V33.0257C182.917 32.9437 183.001 32.9026 183.044 32.9847L189.896 39.877L189.939 39.918H192.857C192.984 39.836 193.026 39.7129 192.984 39.6719Z" fill="#161616"/>
<path d="M46.7973 16L32.923 26.0103L35.5033 20.1026L46.7973 16Z" fill="#E17726" stroke="#E17726" stroke-width="0.5" stroke-linecap="round" stroke-linejoin="round"/>
<path d="M14.7343 16L28.5239 26.0923L26.0705 20.1026L14.7343 16Z" fill="#E27625" stroke="#E27625" stroke-width="0.5" stroke-linecap="round" stroke-linejoin="round"/>
<path d="M41.8059 39.1794L38.0836 44.6769L46.0359 46.8102L48.2777 39.3025L41.8059 39.1794Z" fill="#E27625" stroke="#E27625" stroke-width="0.5" stroke-linecap="round" stroke-linejoin="round"/>
<path d="M13.2961 39.3025L15.538 46.8102L23.4479 44.6769L19.7679 39.1794L13.2961 39.3025Z" fill="#E27625" stroke="#E27625" stroke-width="0.5" stroke-linecap="round" stroke-linejoin="round"/>
<path d="M23.0249 29.9077L20.8254 33.1488L28.6508 33.477L28.397 25.2719L23.0249 29.9077Z" fill="#E27625" stroke="#E27625" stroke-width="0.5" stroke-linecap="round" stroke-linejoin="round"/>
<path d="M38.5489 29.9076L33.0922 25.1897L32.923 33.4769L40.7484 33.1487L38.5489 29.9076Z" fill="#E27625" stroke="#E27625" stroke-width="0.5" stroke-linecap="round" stroke-linejoin="round"/>
<path d="M23.4479 44.677L28.1855 42.4616L24.0824 39.3436L23.4479 44.677Z" fill="#E27625" stroke="#E27625" stroke-width="0.5" stroke-linecap="round" stroke-linejoin="round"/>
<path d="M33.3883 42.4616L38.0835 44.677L37.4491 39.3436L33.3883 42.4616Z" fill="#E27625" stroke="#E27625" stroke-width="0.5" stroke-linecap="round" stroke-linejoin="round"/>
<path d="M38.0835 44.6769L33.3883 42.4615L33.769 45.4154L33.7267 46.6872L38.0835 44.6769Z" fill="#D5BFB2" stroke="#D5BFB2" stroke-width="0.5" stroke-linecap="round" stroke-linejoin="round"/>
<path d="M23.4479 44.6769L27.8471 46.6872L27.8048 45.4154L28.1855 42.4615L23.4479 44.6769Z" fill="#D5BFB2" stroke="#D5BFB2" stroke-width="0.5" stroke-linecap="round" stroke-linejoin="round"/>
<path d="M27.9317 37.3744L23.9979 36.2667L26.7473 35.0359L27.9317 37.3744Z" fill="#233447" stroke="#233447" stroke-width="0.5" stroke-linecap="round" stroke-linejoin="round"/>
<path d="M33.6422 37.3744L34.7842 35.0359L37.576 36.2667L33.6422 37.3744Z" fill="#233447" stroke="#233447" stroke-width="0.5" stroke-linecap="round" stroke-linejoin="round"/>
<path d="M23.4479 44.6769L24.1247 39.1794L19.7679 39.3025L23.4479 44.6769Z" fill="#CC6228" stroke="#CC6228" stroke-width="0.5" stroke-linecap="round" stroke-linejoin="round"/>
<path d="M37.449 39.1794L38.0835 44.6769L41.8059 39.3025L37.449 39.1794Z" fill="#CC6228" stroke="#CC6228" stroke-width="0.5" stroke-linecap="round" stroke-linejoin="round"/>
<path d="M40.7484 33.1487L32.923 33.4769L33.6421 37.3743L34.7842 35.0359L37.576 36.2666L40.7484 33.1487Z" fill="#CC6228" stroke="#CC6228" stroke-width="0.5" stroke-linecap="round" stroke-linejoin="round"/>
<path d="M23.9978 36.2666L26.7473 35.0359L27.9317 37.3743L28.6508 33.4769L20.8254 33.1487L23.9978 36.2666Z" fill="#CC6228" stroke="#CC6228" stroke-width="0.5" stroke-linecap="round" stroke-linejoin="round"/>
<path d="M20.8254 33.1487L24.0824 39.3436L23.9978 36.2666L20.8254 33.1487Z" fill="#E27525" stroke="#E27525" stroke-width="0.5" stroke-linecap="round" stroke-linejoin="round"/>
<path d="M37.5759 36.2666L37.449 39.3436L40.7484 33.1487L37.5759 36.2666Z" fill="#E27525" stroke="#E27525" stroke-width="0.5" stroke-linecap="round" stroke-linejoin="round"/>
<path d="M28.6508 33.4769L27.9317 37.3744L28.82 42.0103L29.0315 35.8974L28.6508 33.4769Z" fill="#E27525" stroke="#E27525" stroke-width="0.5" stroke-linecap="round" stroke-linejoin="round"/>
<path d="M32.923 33.4769L32.5423 35.8974L32.7115 42.0103L33.6421 37.3744L32.923 33.4769Z" fill="#E27525" stroke="#E27525" stroke-width="0.5" stroke-linecap="round" stroke-linejoin="round"/>
<path d="M33.6421 37.3744L32.7115 42.0103L33.3883 42.4616L37.4491 39.3436L37.576 36.2667L33.6421 37.3744Z" fill="#F5841F" stroke="#F5841F" stroke-width="0.5" stroke-linecap="round" stroke-linejoin="round"/>
<path d="M23.9979 36.2667L24.0825 39.3436L28.1855 42.4616L28.82 42.0103L27.9317 37.3744L23.9979 36.2667Z" fill="#F5841F" stroke="#F5841F" stroke-width="0.5" stroke-linecap="round" stroke-linejoin="round"/>
<path d="M33.7267 46.6871L33.769 45.4153L33.3883 45.1282H28.1432L27.8048 45.4153L27.8471 46.6871L23.4479 44.6769L24.9707 45.9076L28.1009 48H33.4306L36.5608 45.9076L38.0835 44.6769L33.7267 46.6871Z" fill="#C0AC9D" stroke="#C0AC9D" stroke-width="0.5" stroke-linecap="round" stroke-linejoin="round"/>
<path d="M33.3883 42.4615L32.7115 42.0103H28.82L28.1855 42.4615L27.8048 45.4154L28.1432 45.1282H33.3883L33.769 45.4154L33.3883 42.4615Z" fill="#161616" stroke="#161616" stroke-width="0.5" stroke-linecap="round" stroke-linejoin="round"/>
<path d="M47.3894 26.6667L48.5738 21.1282L46.7972 16L33.3883 25.6821L38.5488 29.9077L45.8243 31.959L47.4317 30.1538L46.7549 29.6615L47.8547 28.6769L47.0087 28.0205L48.1085 27.2L47.3894 26.6667Z" fill="#763E1A" stroke="#763E1A" stroke-width="0.5" stroke-linecap="round" stroke-linejoin="round"/>
<path d="M13 21.1282L14.1844 26.6667L13.423 27.2L14.5228 28.0205L13.6768 28.6769L14.8189 29.6615L14.0998 30.1538L15.7072 31.959L23.025 29.9077L28.1855 25.6821L14.7343 16L13 21.1282Z" fill="#763E1A" stroke="#763E1A" stroke-width="0.5" stroke-linecap="round" stroke-linejoin="round"/>
<path d="M45.8244 31.959L38.5489 29.9077L40.7485 33.1487L37.4491 39.3436L41.8059 39.3026H48.2778L45.8244 31.959Z" fill="#F5841F" stroke="#F5841F" stroke-width="0.5" stroke-linecap="round" stroke-linejoin="round"/>
<path d="M23.025 29.9077L15.7071 31.959L13.2961 39.3026H19.7679L24.0824 39.3436L20.8254 33.1487L23.025 29.9077Z" fill="#F5841F" stroke="#F5841F" stroke-width="0.5" stroke-linecap="round" stroke-linejoin="round"/>
<path d="M32.9231 33.4769L33.3884 25.682L35.5033 20.1025H26.0706L28.1855 25.682L28.6508 33.4769L28.82 35.9384V42.0102H32.7116V35.9384L32.9231 33.4769Z" fill="#F5841F" stroke="#F5841F" stroke-width="0.5" stroke-linecap="round" stroke-linejoin="round"/>
</svg>
