<svg width="207" height="64" viewBox="0 0 207 64" fill="none" xmlns="http://www.w3.org/2000/svg">
<path fill-rule="evenodd" clip-rule="evenodd" d="M124.106 35.487C124.106 39.9366 126.613 42.6148 130.613 42.6148C133.995 42.6148 136.342 40.6728 136.673 37.5784H133.867C133.558 39.211 132.331 40.214 130.624 40.214C128.427 40.214 127.04 38.4001 127.04 35.4657C127.04 32.574 128.437 30.7494 130.613 30.7494C132.288 30.7494 133.59 31.8591 133.856 33.545H136.662C136.438 30.472 133.921 28.3699 130.613 28.3699C126.634 28.3699 124.106 31.0482 124.106 35.487ZM77.2851 32.9795L74.6715 42.3801H71.9512L68.3135 28.6154H71.3005L73.466 38.5814H73.5407L76.1116 28.6154H78.5439L81.1148 38.5814H81.1895L83.3658 28.6154H86.3527L82.7044 42.3801H79.9841L77.3704 32.9795H77.2851ZM90.3212 40.5234C91.5266 40.5234 92.5294 39.7338 92.5294 38.6241V37.8772L90.3745 38.0052C89.3397 38.0799 88.7423 38.5494 88.7423 39.275C88.7423 40.054 89.3717 40.5234 90.3212 40.5234ZM85.9794 39.4457C85.9794 41.281 87.4622 42.5401 89.4037 42.5401C90.6839 42.5401 91.9427 41.8999 92.5187 40.8222H92.5721V42.3908H95.2604V35.359C95.2604 33.2996 93.5535 31.9445 90.9292 31.9445C88.2196 31.9445 86.5341 33.3103 86.4274 35.295H88.977C89.1157 34.5374 89.7771 34.0252 90.8119 34.0252C91.8573 34.0252 92.5294 34.5801 92.5294 35.5297V36.202L89.9585 36.3513C87.4089 36.5114 85.9794 37.5891 85.9794 39.4457ZM97.1272 28.6154H99.9115V42.3801H97.1272V28.6154ZM104.637 28.6154H101.853V42.3801H104.637V28.6154ZM111.102 33.9932C109.886 33.9932 109.001 34.9215 108.904 36.1913H113.246C113.193 34.8895 112.34 33.9932 111.102 33.9932ZM115.849 39.2537H113.289C113.022 40.0326 112.244 40.5341 111.241 40.5555C109.822 40.5555 108.894 39.5524 108.894 38.0906V37.9199H115.935V37.0663C115.935 33.9612 114.057 31.9445 111.081 31.9445C108.062 31.9445 106.152 34.0572 106.152 37.3223C106.152 40.5875 108.04 42.6042 111.187 42.6042C113.716 42.6042 115.54 41.2597 115.849 39.2537ZM118.1 29.7998H120.884V32.1579H122.773V34.26H120.884V39.147C120.884 39.9259 121.268 40.2994 122.09 40.2994C122.335 40.2994 122.591 40.278 122.762 40.2567V42.3054C122.474 42.3694 121.994 42.4228 121.439 42.4228C119.039 42.4228 118.1 41.6225 118.1 39.6271V34.26H116.66V32.1579H118.1V29.7998ZM142.892 42.5935C139.798 42.5935 137.825 40.6088 137.825 37.2583C137.825 33.9505 139.83 31.9338 142.892 31.9338C145.954 31.9338 147.959 33.9399 147.959 37.2583C147.959 40.6195 145.986 42.5935 142.892 42.5935ZM145.122 37.269C145.122 39.3177 144.258 40.4701 142.892 40.4701C141.527 40.4701 140.652 39.3177 140.652 37.269C140.652 35.2416 141.537 34.0679 142.892 34.0679C144.247 34.0679 145.122 35.2416 145.122 37.269ZM149.389 32.1579H152.077V33.9825H152.13C152.675 32.7128 153.752 31.9658 155.331 31.9658C157.603 31.9658 158.873 33.3957 158.873 35.7858V42.3801H156.088V36.3727C156.088 35.0389 155.459 34.2706 154.211 34.2706C152.963 34.2706 152.173 35.1883 152.173 36.5114V42.3801H149.389V32.1579ZM163.321 32.1579H160.633V42.3801H163.406V36.5114C163.406 35.1883 164.196 34.2706 165.444 34.2706C166.692 34.2706 167.321 35.0389 167.321 36.3727V42.3801H170.106V35.7858C170.106 33.3957 168.836 31.9658 166.564 31.9658C164.996 31.9658 163.918 32.7128 163.374 33.9825H163.321V32.1579ZM176.474 33.9932C175.258 33.9932 174.373 34.9215 174.277 36.1913H178.619C178.565 34.8895 177.712 33.9932 176.474 33.9932ZM181.211 39.2537H178.651C178.395 40.0326 177.616 40.5341 176.602 40.5555C175.184 40.5555 174.255 39.5524 174.255 38.0906V37.9199H181.296V37.0663C181.296 33.9612 179.419 31.9445 176.442 31.9445C173.423 31.9445 171.514 34.0572 171.514 37.3223C171.514 40.5875 173.402 42.6042 176.549 42.6042C179.077 42.6042 180.902 41.2597 181.211 39.2537ZM192.007 35.9565H189.425C189.265 34.8788 188.55 34.1212 187.409 34.1212C186.033 34.1212 185.179 35.2843 185.179 37.2583C185.179 39.275 186.033 40.4167 187.42 40.4167C188.54 40.4167 189.254 39.7445 189.436 38.6348H192.028C191.889 41.0463 190.087 42.6042 187.398 42.6042C184.315 42.6042 182.363 40.5981 182.363 37.269C182.363 33.9932 184.315 31.9445 187.377 31.9445C190.129 31.9338 191.889 33.6411 192.007 35.9565ZM196.893 29.7998H194.108V32.1579H192.668V34.26H194.108V39.6271C194.108 41.6225 195.047 42.4228 197.447 42.4228C198.013 42.4228 198.482 42.3694 198.77 42.3054V40.2567C198.599 40.278 198.343 40.2994 198.098 40.2994C197.277 40.2994 196.893 39.9259 196.893 39.147V34.26H198.781V32.1579H196.893V29.7998Z" fill="#3999FA"/>
<path fill-rule="evenodd" clip-rule="evenodd" d="M48.8071 22.0581C40.5503 13.9806 27.1835 13.9806 18.9373 22.0581L17.8492 23.1251C17.4331 23.5306 17.4331 24.1815 17.8492 24.587L21.2522 27.9161C21.4549 28.1188 21.7963 28.1188 21.9989 27.9161L23.4604 26.4863C29.2104 20.8523 38.5447 20.8523 44.2947 26.4863L45.6601 27.8201C45.8628 28.0228 46.2042 28.0228 46.4069 27.8201L49.7993 24.4909C50.2153 24.0854 50.2153 23.4346 49.7993 23.0291L48.8071 22.0581ZM58.8456 31.8855L55.8266 28.9298C55.4105 28.5243 54.7384 28.5243 54.3331 28.9405L44.6574 38.4157C44.5507 38.5117 44.3907 38.5117 44.284 38.4157L34.6083 28.9405C34.1922 28.535 33.5308 28.535 33.1148 28.9405L23.4498 38.4157C23.3431 38.5117 23.1831 38.5117 23.0764 38.4157L13.4007 28.9405C12.9846 28.535 12.3232 28.535 11.9072 28.9405L8.88821 31.8961C8.47216 32.3016 8.47216 32.9525 8.88821 33.358L22.5217 46.6959C22.9377 47.1014 23.5991 47.1014 24.0152 46.6959L33.6802 37.2206C33.7869 37.1246 33.9469 37.1246 34.0536 37.2206L43.7293 46.6959C44.1453 47.1014 44.8067 47.1014 45.2228 46.6959L58.8456 33.3473C59.2616 32.9418 59.2616 32.2909 58.8456 31.8855Z" fill="#3A99FB"/>
</svg>
