<svg width="164" height="132" viewBox="0 0 164 132" fill="none" xmlns="http://www.w3.org/2000/svg">
<ellipse opacity="0.199014" cx="70.8847" cy="65.4436" rx="62.5644" ry="62.5568" fill="#94E4B3"/>
<ellipse opacity="0.197992" cx="70.8835" cy="65.4438" rx="50.3991" ry="50.393" fill="url(#paint0_radial_3498_63077)"/>
<g filter="url(#filter0_d_3498_63077)">
<path d="M153.577 77.2767C155.328 79.0283 155.463 81.7844 153.981 83.6906L153.577 84.1483L116.405 121.316C114.653 123.067 111.896 123.202 109.99 121.72L109.532 121.316L88.6453 101.6C86.7475 99.7023 86.7475 96.6258 88.6453 94.7282C90.3971 92.9766 93.1536 92.8419 95.0599 94.324L95.5177 94.7282L112.97 111.008L146.704 77.2767C148.456 75.5251 151.212 75.3904 153.119 76.8725L153.577 77.2767Z" fill="white"/>
</g>
<path fill-rule="evenodd" clip-rule="evenodd" d="M52.753 41.4414L53.2073 41.3208C55.0313 40.8725 56.9433 40.8318 59.0339 41.1073L59.6813 41.2011C64.4121 41.9484 68.7748 43.9814 72.8855 46.3882C73.0666 46.5264 76.3408 48.9669 80.6824 47.951L81.0441 47.8669C85.3829 46.8639 89.6564 46.1251 94.6403 48.9779L94.8133 49.0792C99.8938 52.121 105.498 61.4457 98.5446 72.7642L98.3133 73.1335C91.2373 84.2149 78.8147 84.4741 78.8147 84.4741C78.7314 84.4871 77.5312 84.6658 74.4535 84.6972L74.1505 84.7063C71.1749 84.8568 69.801 86.7431 69.801 86.7431L69.7943 86.7523C69.6528 86.9459 67.2849 90.1613 65.1525 91.4777L64.9695 91.5834C62.9568 92.6622 62.9942 89.769 62.9939 89.7679L62.9998 89.4942C63.0556 87.5749 63.3872 85.5966 62.0554 83.9978L61.86 83.7814C60.7683 82.66 58.9025 82.057 57.4092 81.7955L57.3564 81.7848C56.0824 81.4994 45.4743 77.5755 42.1949 67.3909L42.0719 66.9973C39.595 58.8318 41.2294 48.7327 48.513 43.5297C49.906 42.5348 51.3039 41.8551 52.753 41.4414Z" fill="#26D07C"/>
<mask id="mask0_3498_63077" style="mask-type:alpha" maskUnits="userSpaceOnUse" x="40" y="40" width="62" height="52">
<path fill-rule="evenodd" clip-rule="evenodd" d="M52.753 41.4414L53.2073 41.3208C55.0313 40.8725 56.9433 40.8318 59.0339 41.1073L59.6813 41.2011C64.4121 41.9484 68.7748 43.9814 72.8855 46.3882C73.0666 46.5264 76.3408 48.9669 80.6824 47.951L81.0441 47.8669C85.3829 46.8639 89.6564 46.1251 94.6403 48.9779L94.8133 49.0792C99.8938 52.121 105.498 61.4457 98.5446 72.7642L98.3133 73.1335C91.2373 84.2149 78.8147 84.4741 78.8147 84.4741C78.7314 84.4871 77.5312 84.6658 74.4535 84.6972L74.1505 84.7063C71.1749 84.8568 69.801 86.7431 69.801 86.7431L69.7943 86.7523C69.6528 86.9459 67.2849 90.1613 65.1525 91.4777L64.9695 91.5834C62.9568 92.6622 62.9942 89.769 62.9939 89.7679L62.9998 89.4942C63.0556 87.5749 63.3872 85.5966 62.0554 83.9978L61.86 83.7814C60.7683 82.66 58.9025 82.057 57.4092 81.7955L57.3564 81.7848C56.0824 81.4994 45.4743 77.5755 42.1949 67.3909L42.0719 66.9973C39.595 58.8318 41.2294 48.7327 48.513 43.5297C49.906 42.5348 51.3039 41.8551 52.753 41.4414Z" fill="white"/>
</mask>
<g mask="url(#mask0_3498_63077)">
<path opacity="0.0535974" fill-rule="evenodd" clip-rule="evenodd" d="M79.0292 44.1187C79.0292 44.1187 99.8156 62.1525 74.8624 85.8032C49.9092 109.454 109.215 110.285 109.215 110.285L111.979 82.4949L116.618 43.4198L101.269 34.8555L79.0292 44.1187Z" fill="black"/>
</g>
<path fill-rule="evenodd" clip-rule="evenodd" d="M59.5539 58.0132C59.5539 61.3022 56.8561 63.9685 53.5266 63.9685C50.1985 63.9685 47.5 61.3022 47.5 58.0132C47.5 54.7249 50.1985 52.0586 53.5266 52.0586C56.8561 52.0586 59.5539 54.7249 59.5539 58.0132Z" fill="#FEFEFE"/>
<path fill-rule="evenodd" clip-rule="evenodd" d="M71.6086 60.66C71.6086 63.9492 68.9108 66.6149 65.5813 66.6149C62.2532 66.6149 59.5547 63.9492 59.5547 60.66C59.5547 57.3715 62.2532 54.7051 65.5813 54.7051C68.9108 54.7051 71.6086 57.3715 71.6086 60.66Z" fill="#FEFEFE"/>
<path fill-rule="evenodd" clip-rule="evenodd" d="M56.8729 58.675C56.8729 60.1363 55.6738 61.3216 54.1939 61.3216C52.7147 61.3216 51.5156 60.1363 51.5156 58.675C51.5156 57.2136 52.7147 56.0283 54.1939 56.0283C55.6738 56.0283 56.8729 57.2136 56.8729 58.675Z" fill="#050101"/>
<path fill-rule="evenodd" clip-rule="evenodd" d="M68.9276 61.3224C68.9276 62.7838 67.7285 63.9691 66.2486 63.9691C64.7694 63.9691 63.5703 62.7838 63.5703 61.3224C63.5703 59.8611 64.7694 58.6758 66.2486 58.6758C67.7285 58.6758 68.9276 59.8611 68.9276 61.3224Z" fill="#050101"/>
<path fill-rule="evenodd" clip-rule="evenodd" d="M10.6914 0L2.62109 8.50982L28.204 27.9338L30.4144 25.4217L10.6914 0Z" fill="#26D07C"/>
<path fill-rule="evenodd" clip-rule="evenodd" d="M2.52496 25.709L0 34.3492L20.3175 36.9945L21.3805 34.1455L2.52496 25.709Z" fill="#26D07C"/>
<defs>
<filter id="filter0_d_3498_63077" x="78.2219" y="66.8535" width="85.7781" height="64.8857" filterUnits="userSpaceOnUse" color-interpolation-filters="sRGB">
<feFlood flood-opacity="0" result="BackgroundImageFix"/>
<feColorMatrix in="SourceAlpha" type="matrix" values="0 0 0 0 0 0 0 0 0 0 0 0 0 0 0 0 0 0 127 0" result="hardAlpha"/>
<feOffset/>
<feGaussianBlur stdDeviation="4.5"/>
<feColorMatrix type="matrix" values="0 0 0 0 0.580392 0 0 0 0 0.894118 0 0 0 0 0.701961 0 0 0 1 0"/>
<feBlend mode="normal" in2="BackgroundImageFix" result="effect1_dropShadow_3498_63077"/>
<feBlend mode="normal" in="SourceGraphic" in2="effect1_dropShadow_3498_63077" result="shape"/>
</filter>
<radialGradient id="paint0_radial_3498_63077" cx="0" cy="0" r="1" gradientUnits="userSpaceOnUse" gradientTransform="translate(70.8835 65.4438) rotate(90) scale(50.393 49.6241)">
<stop stop-color="white"/>
<stop offset="0.474295" stop-color="#94E4B3"/>
<stop offset="1" stop-color="#26D07C"/>
</radialGradient>
</defs>
</svg>
